<svg aria-hidden="true" style="position: absolute; width: 0; height: 0; overflow: hidden;" version="1.1" xmlns="http://www.w3.org/2000/svg" xmlns:xlink="http://www.w3.org/1999/xlink">
  <defs>
   <symbol id="icon-Subtract" viewBox="0 0 32 32">
     <path d="M16 32c-8.837 0-16-7.163-16-16s7.163-16 16-16c8.837 0 16 7.163 16 16s-7.163 16-16 16zM15.798 20.056l6.206-6.4-1.767-1.714-5.357 5.525-3.151-2.999-1.697 1.783 4.917 4.681 0.849-0.875z"></path>
   </symbol>
   <symbol id="icon-hero" viewBox="0 0 27 32">
     <path d="M26.812 7.758v-0.157h-0.013c-0.078-1.936-1.386-3.858-3.943-5.33-5.245-3.028-13.746-3.028-18.958 0-2.609 1.517-3.904 3.505-3.898 5.493v16.473c0.013 1.988 1.334 3.976 3.956 5.487 2.629 1.517 6.062 2.276 9.489 2.276 3.433 0 6.854-0.759 9.469-2.276 2.609-1.517 3.904-3.505 3.898-5.487v-16.48c0 0.007 0 0 0 0zM6.625 5.299l0.726-0.419c0.183-0.105 0.471-0.105 0.66 0l0.896 0.517c0.196-0.118 0.399-0.229 0.595-0.347l-0.896-0.517c-0.183-0.105-0.183-0.275 0-0.379l0.726-0.419c0.183-0.105 0.477-0.105 0.661 0l1.144 0.66 0.15-0.046c1.282-0.392 2.642-0.569 4.094-0.464 1.138 0.085 2.158 0.353 3.093 0.746 0.366 0.15 0.706 0.32 1.014 0.497 0.811 0.471 1.432 1.020 1.916 1.641l0.098 0.17c0.111 0.229-0.020 0.386-0.405 0.477-0.405 0.105-0.817 0.196-1.229 0.288-0.288 0.059-0.49 0.046-0.667-0.059-0.046-0.026-0.085-0.059-0.131-0.092-0.275-0.255-0.523-0.53-0.817-0.778-0.262-0.229-0.549-0.445-0.876-0.634-0.432-0.248-0.929-0.458-1.524-0.602-0.889-0.222-1.759-0.17-2.635 0.033l-0.033 0.007 2.217 1.282c0.183 0.105 0.183 0.275 0 0.379l-0.726 0.419c-0.183 0.105-0.477 0.105-0.661 0l-2.544-1.465c-0.19 0.111-0.392 0.229-0.595 0.347l2.544 1.465c0.183 0.105 0.183 0.275 0 0.379l-0.726 0.419c-0.183 0.105-0.471 0.105-0.661 0l-2.322-1.341c-0.517 0.628-0.68 1.249-0.098 1.897 0.248 0.275 0.569 0.517 0.942 0.732 0.327 0.19 0.687 0.353 1.072 0.504 0.432 0.157 0.889 0.301 1.334 0.464 0.072 0.026 0.131 0.052 0.183 0.085 0.177 0.105 0.203 0.222 0.098 0.386-0.15 0.249-0.32 0.491-0.504 0.726-0.15 0.216-0.432 0.294-0.837 0.216-0.405-0.092-0.804-0.203-1.197-0.327-0.719-0.235-1.367-0.51-1.929-0.837-0.589-0.34-1.086-0.732-1.484-1.177-0.935-1.059-0.916-2.138-0.15-3.224 0.15-0.216 0.36-0.405 0.543-0.608l-1.086-0.628c-0.157-0.098-0.157-0.268 0.026-0.373zM3.957 13.251c5.251 3.034 13.74 3.034 18.958 0 0.811-0.471 1.484-0.994 2.040-1.543v0.229c0.007 1.36-1.079 2.779-2.976 3.878-2.25 1.308-5.277 2.027-8.534 2.027s-6.304-0.719-8.567-2.027c-1.916-1.105-3.021-2.531-3.034-3.885v-0.268c0.582 0.562 1.275 1.105 2.112 1.589zM21.986 24.009c-2.25 1.308-5.277 2.027-8.534 2.027s-6.304-0.719-8.567-2.027c-1.916-1.105-3.021-2.531-3.034-3.885v-0.196c0.575 0.569 1.262 1.105 2.106 1.589 2.629 1.517 6.062 2.276 9.489 2.276 3.433 0 6.854-0.759 9.469-2.276 0.811-0.471 1.484-0.994 2.040-1.543v0.163c0.013 1.36-1.072 2.773-2.969 3.871zM21.986 19.915c-2.25 1.308-5.277 2.027-8.534 2.027s-6.304-0.719-8.567-2.027c-1.916-1.105-3.021-2.531-3.034-3.885v-0.196c0.575 0.569 1.262 1.105 2.106 1.589 2.629 1.517 6.062 2.276 9.489 2.276 3.433 0 6.854-0.759 9.469-2.276 0.811-0.471 1.484-0.994 2.040-1.543v0.163c0.013 1.354-1.072 2.766-2.969 3.871zM21.986 28.109c-2.25 1.308-5.277 2.027-8.534 2.027s-6.304-0.719-8.567-2.027c-1.916-1.105-3.021-2.531-3.034-3.884v-0.196c0.575 0.569 1.262 1.105 2.106 1.589 2.629 1.517 6.062 2.276 9.489 2.276 3.433 0 6.854-0.759 9.469-2.276 0.811-0.471 1.484-0.994 2.040-1.543v0.163c0.013 1.354-1.072 2.773-2.969 3.871z"></path>
   </symbol>
   <symbol id="icon-heroo" viewBox="0 0 458 32">
     <path d="M2.744 24.612c66.074-18.618 248.615-44.517 452.646-0.055 2.032 0.443 3.32 2.448 2.877 4.48s-2.449 3.32-4.48 2.877c-202.719-44.176-384.005-18.369-449.001-0.055-2.001 0.564-4.080-0.601-4.644-2.602s0.601-4.080 2.602-4.644z"></path>
   </symbol>
   <symbol id="icon-play" viewBox="0 0 27 32">
      <path stroke-linejoin="round" stroke-linecap="round" stroke-miterlimit="4" stroke-width="4" d="M24.222 15.312c0-3.605-18.478-15.138-20.574-13.064s-2.298 23.859 0 26.128c2.298 2.277 20.574-9.459 20.574-13.064z"></path>
   </symbol>

   <symbol id="icon-logo-uniplast" viewBox="0 0 152 32">
      <path fill="#a6a6a6" style="fill: var(--color1, #a6a6a6)" d="M50.695 7.732h3.328v12.004c0 1.316-0.311 2.473-0.933 3.472-0.616 0.999-1.483 1.779-2.602 2.342-1.118 0.556-2.425 0.834-3.92 0.834-1.501 0-2.811-0.278-3.929-0.834-1.118-0.562-1.986-1.343-2.602-2.342s-0.924-2.156-0.924-3.472v-12.004h3.328v11.725c0 0.766 0.167 1.447 0.502 2.045 0.341 0.598 0.819 1.068 1.435 1.409 0.616 0.335 1.346 0.502 2.189 0.502s1.573-0.168 2.189-0.502c0.622-0.341 1.1-0.81 1.435-1.409s0.502-1.28 0.502-2.045v-11.725zM60.745 18.031v8.074h-3.248v-13.78h3.104v2.341h0.161c0.317-0.772 0.822-1.385 1.516-1.839 0.7-0.455 1.564-0.682 2.593-0.682 0.951 0 1.779 0.203 2.485 0.61 0.712 0.407 1.262 0.996 1.651 1.767 0.395 0.772 0.589 1.708 0.583 2.808v8.774h-3.248v-8.271c0-0.921-0.239-1.642-0.718-2.162-0.472-0.52-1.127-0.781-1.965-0.781-0.568 0-1.074 0.126-1.516 0.377-0.437 0.245-0.781 0.601-1.032 1.068-0.245 0.467-0.368 1.032-0.368 1.696zM83.784 15.968l-2.96 0.323c-0.084-0.299-0.23-0.58-0.44-0.843-0.203-0.263-0.478-0.476-0.825-0.637s-0.772-0.242-1.274-0.242c-0.676 0-1.244 0.147-1.705 0.44-0.455 0.293-0.679 0.673-0.673 1.139-0.006 0.401 0.141 0.727 0.44 0.978 0.305 0.251 0.807 0.458 1.507 0.619l2.35 0.502c1.304 0.281 2.273 0.727 2.907 1.337 0.64 0.61 0.963 1.409 0.969 2.395-0.006 0.867-0.26 1.633-0.763 2.297-0.496 0.658-1.187 1.172-2.072 1.543s-1.902 0.556-3.050 0.556c-1.687 0-3.044-0.353-4.073-1.059-1.029-0.712-1.642-1.702-1.839-2.97l3.167-0.305c0.144 0.622 0.449 1.092 0.915 1.409s1.074 0.475 1.821 0.475c0.772 0 1.39-0.158 1.857-0.475 0.472-0.317 0.709-0.709 0.709-1.175 0-0.395-0.153-0.721-0.458-0.978-0.299-0.257-0.766-0.455-1.4-0.592l-2.35-0.493c-1.322-0.275-2.3-0.739-2.934-1.391-0.634-0.658-0.948-1.489-0.942-2.494-0.006-0.849 0.224-1.585 0.691-2.207 0.472-0.628 1.127-1.112 1.965-1.453 0.843-0.347 1.815-0.52 2.916-0.52 1.615 0 2.886 0.344 3.813 1.032 0.933 0.688 1.51 1.618 1.731 2.79zM86.758 31.273v-18.947h3.193v2.279h0.189c0.168-0.335 0.403-0.691 0.708-1.068 0.306-0.383 0.718-0.709 1.239-0.978 0.52-0.275 1.184-0.413 1.992-0.413 1.064 0 2.024 0.272 2.879 0.816 0.861 0.538 1.544 1.337 2.045 2.395 0.509 1.053 0.763 2.345 0.763 3.876 0 1.513-0.248 2.799-0.744 3.858s-1.172 1.866-2.028 2.422-1.824 0.834-2.907 0.834c-0.789 0-1.444-0.132-1.965-0.395s-0.939-0.58-1.256-0.951c-0.312-0.377-0.553-0.733-0.727-1.068h-0.135v7.339h-3.247zM89.942 19.215c0 0.891 0.126 1.672 0.377 2.341 0.257 0.67 0.625 1.193 1.103 1.57 0.485 0.371 1.071 0.556 1.758 0.556 0.718 0 1.319-0.191 1.804-0.574 0.484-0.389 0.849-0.918 1.094-1.588 0.252-0.676 0.377-1.444 0.377-2.306 0-0.855-0.123-1.615-0.368-2.279s-0.61-1.184-1.095-1.561c-0.484-0.377-1.088-0.565-1.812-0.565-0.694 0-1.283 0.182-1.767 0.547s-0.852 0.876-1.104 1.534c-0.245 0.658-0.368 1.432-0.368 2.324zM105.795 7.732v18.373h-3.247v-18.373h3.247zM113.1 26.383c-0.873 0-1.66-0.156-2.36-0.467-0.694-0.317-1.245-0.784-1.651-1.4-0.401-0.616-0.601-1.376-0.601-2.279 0-0.778 0.143-1.42 0.43-1.929s0.679-0.915 1.176-1.22c0.496-0.305 1.055-0.535 1.677-0.691 0.628-0.161 1.277-0.278 1.947-0.35 0.807-0.084 1.462-0.158 1.965-0.224 0.502-0.072 0.867-0.179 1.094-0.323 0.233-0.15 0.35-0.38 0.35-0.691v-0.054c0-0.676-0.2-1.199-0.601-1.57s-0.978-0.556-1.731-0.556c-0.796 0-1.427 0.173-1.893 0.52-0.461 0.347-0.771 0.757-0.933 1.229l-3.032-0.431c0.239-0.837 0.634-1.537 1.185-2.099 0.55-0.568 1.223-0.993 2.019-1.274 0.795-0.287 1.674-0.431 2.637-0.431 0.664 0 1.325 0.078 1.982 0.233s1.259 0.413 1.804 0.772c0.544 0.353 0.98 0.834 1.309 1.444 0.335 0.61 0.502 1.373 0.502 2.288v9.222h-3.122v-1.893h-0.108c-0.197 0.383-0.475 0.742-0.835 1.077-0.353 0.329-0.798 0.595-1.336 0.798-0.532 0.197-1.157 0.296-1.875 0.296zM113.943 23.997c0.652 0 1.217-0.129 1.695-0.386 0.479-0.263 0.846-0.61 1.104-1.041 0.263-0.431 0.395-0.9 0.395-1.409v-1.624c-0.102 0.084-0.275 0.162-0.52 0.233-0.239 0.072-0.509 0.135-0.808 0.188s-0.595 0.102-0.888 0.144c-0.293 0.042-0.547 0.078-0.762 0.108-0.485 0.066-0.919 0.173-1.301 0.323s-0.685 0.359-0.906 0.628c-0.221 0.263-0.332 0.604-0.332 1.023 0 0.598 0.218 1.050 0.654 1.355s0.993 0.458 1.669 0.458zM134.532 15.968l-2.961 0.323c-0.083-0.299-0.23-0.58-0.44-0.843-0.204-0.263-0.478-0.476-0.825-0.637s-0.771-0.242-1.274-0.242c-0.676 0-1.244 0.147-1.704 0.44-0.455 0.293-0.679 0.673-0.673 1.139-0.006 0.401 0.141 0.727 0.44 0.978 0.305 0.251 0.808 0.458 1.507 0.619l2.35 0.502c1.304 0.281 2.273 0.727 2.907 1.337 0.64 0.61 0.963 1.409 0.968 2.395-0.006 0.867-0.26 1.633-0.762 2.297-0.497 0.658-1.187 1.172-2.072 1.543s-1.902 0.556-3.051 0.556c-1.686 0-3.044-0.353-4.072-1.059-1.029-0.712-1.642-1.702-1.839-2.97l3.167-0.305c0.143 0.622 0.448 1.092 0.915 1.409s1.074 0.475 1.821 0.475c0.771 0 1.39-0.158 1.857-0.475 0.472-0.317 0.709-0.709 0.709-1.175 0-0.395-0.152-0.721-0.458-0.978-0.299-0.257-0.765-0.455-1.4-0.592l-2.35-0.493c-1.321-0.275-2.3-0.739-2.933-1.391-0.634-0.658-0.948-1.489-0.942-2.494-0.006-0.849 0.224-1.585 0.691-2.207 0.472-0.628 1.128-1.112 1.965-1.453 0.844-0.347 1.816-0.52 2.916-0.52 1.614 0 2.886 0.344 3.812 1.032 0.933 0.688 1.511 1.618 1.732 2.79zM140.754 18.031v8.074h-3.248v-18.373h3.176v6.935h0.162c0.323-0.778 0.823-1.391 1.498-1.839 0.682-0.455 1.549-0.682 2.602-0.682 0.957 0 1.791 0.2 2.503 0.601s1.262 0.987 1.651 1.758c0.395 0.772 0.593 1.714 0.593 2.826v8.774h-3.248v-8.271c0-0.927-0.239-1.648-0.717-2.162-0.472-0.52-1.137-0.781-1.992-0.781-0.574 0-1.089 0.126-1.544 0.377-0.448 0.245-0.801 0.601-1.059 1.068-0.251 0.467-0.376 1.032-0.376 1.696z"></path>
      <path fill="#a6a6a6" style="fill: var(--color1, #a6a6a6)" d="M9.263 0h10.105v7.579h-10.105v-7.579z"></path>
      <path fill="#a6a6a6" style="fill: var(--color1, #a6a6a6)" d="M0 19.368h28.632v7.579h-28.632v-7.579z"></path>
      <path fill="#a6a6a6" style="fill: var(--color1, #a6a6a6)" d="M20.211 11.789h8.421v15.158h-8.421v-15.158z"></path>
      <path fill="#a6a6a6" style="fill: var(--color1, #a6a6a6)" d="M0 11.789h8.421v15.158h-8.421v-15.158z"></path>
   </symbol>
   <symbol id="icon-logo-notion" viewBox="0 0 129 32">
      <path fill="#a6a6a6" style="fill: var(--color1, #a6a6a6)" d="M60.517 6.384v19.394h-3.125l-9.138-13.21h-0.161v13.21h-3.513v-19.394h3.144l9.129 13.22h0.17v-13.22h3.494zM70.538 26.062c-1.42 0-2.651-0.313-3.693-0.938s-1.85-1.499-2.424-2.623c-0.568-1.124-0.852-2.437-0.852-3.939s0.284-2.819 0.852-3.949c0.575-1.13 1.383-2.008 2.424-2.633s2.273-0.938 3.693-0.938c1.421 0 2.652 0.313 3.693 0.938s1.847 1.502 2.415 2.633c0.575 1.13 0.862 2.446 0.862 3.949s-0.287 2.816-0.862 3.939c-0.568 1.124-1.373 1.998-2.415 2.623s-2.273 0.938-3.693 0.938zM70.557 23.316c0.77 0 1.414-0.211 1.932-0.634 0.518-0.429 0.903-1.004 1.155-1.723 0.259-0.72 0.388-1.521 0.388-2.405 0-0.89-0.129-1.695-0.388-2.415-0.253-0.726-0.638-1.304-1.155-1.733s-1.162-0.644-1.932-0.644c-0.789 0-1.446 0.215-1.97 0.644-0.518 0.429-0.906 1.007-1.165 1.733-0.253 0.72-0.379 1.525-0.379 2.415 0 0.884 0.126 1.686 0.379 2.405 0.259 0.72 0.647 1.294 1.165 1.723 0.524 0.423 1.181 0.634 1.97 0.634zM87.681 11.232v2.651h-8.362v-2.651h8.362zM81.384 7.747h3.428v13.655c0 0.461 0.069 0.814 0.208 1.061 0.145 0.24 0.335 0.404 0.568 0.492s0.492 0.133 0.777 0.133c0.215 0 0.41-0.016 0.587-0.047 0.183-0.032 0.322-0.060 0.417-0.085l0.578 2.68c-0.183 0.063-0.445 0.133-0.786 0.208-0.335 0.076-0.745 0.12-1.231 0.133-0.859 0.025-1.632-0.104-2.32-0.388-0.688-0.29-1.234-0.739-1.638-1.345-0.398-0.606-0.593-1.364-0.587-2.273v-14.223zM90.548 25.778v-14.545h3.428v14.545h-3.428zM92.271 9.168c-0.543 0-1.010-0.18-1.401-0.54-0.392-0.366-0.588-0.805-0.588-1.316 0-0.518 0.196-0.956 0.588-1.316 0.391-0.366 0.858-0.549 1.401-0.549 0.549 0 1.017 0.183 1.402 0.549 0.391 0.36 0.587 0.799 0.587 1.316 0 0.511-0.196 0.95-0.587 1.316-0.385 0.36-0.852 0.54-1.402 0.54zM103.845 26.062c-1.42 0-2.652-0.313-3.692-0.938s-1.85-1.499-2.425-2.623c-0.568-1.124-0.852-2.437-0.852-3.939s0.284-2.819 0.852-3.949c0.575-1.13 1.383-2.008 2.425-2.633s2.272-0.938 3.692-0.938 2.652 0.313 3.693 0.938c1.042 0.625 1.847 1.502 2.415 2.633 0.574 1.13 0.861 2.446 0.861 3.949s-0.287 2.816-0.861 3.939c-0.568 1.124-1.373 1.998-2.415 2.623s-2.273 0.938-3.693 0.938zM103.865 23.316c0.77 0 1.414-0.211 1.932-0.634 0.517-0.429 0.903-1.004 1.156-1.723 0.259-0.72 0.388-1.521 0.388-2.405 0-0.89-0.129-1.695-0.388-2.415-0.252-0.726-0.638-1.304-1.156-1.733s-1.162-0.644-1.932-0.644c-0.789 0-1.446 0.215-1.97 0.644-0.518 0.429-0.906 1.007-1.165 1.733-0.252 0.72-0.379 1.525-0.379 2.415 0 0.884 0.126 1.686 0.379 2.405 0.26 0.72 0.647 1.294 1.165 1.723 0.524 0.423 1.18 0.634 1.97 0.634zM117.153 17.255v8.523h-3.428v-14.545h3.276v2.472h0.17c0.335-0.814 0.868-1.462 1.601-1.941 0.739-0.48 1.651-0.72 2.737-0.72 1.004 0 1.878 0.215 2.623 0.644 0.751 0.429 1.332 1.051 1.742 1.865 0.417 0.814 0.621 1.802 0.615 2.964v9.261h-3.428v-8.731c0-0.972-0.252-1.733-0.757-2.282-0.5-0.549-1.19-0.824-2.075-0.824-0.599 0-1.132 0.133-1.6 0.398-0.46 0.259-0.824 0.634-1.089 1.127-0.259 0.492-0.388 1.089-0.388 1.79z"></path>
      <path fill="#a6a6a6" style="fill: var(--color1, #a6a6a6)" d="M25.234 12.848v12.929h-2.083l-6.092-8.807h-0.107v8.807h-2.342v-12.929h2.096l6.086 8.813h0.114v-8.813h2.33z"></path>
      <path fill="none" stroke="#a6a6a6" style="stroke: var(--color1, #a6a6a6)" stroke-linejoin="miter" stroke-linecap="butt" stroke-miterlimit="4" stroke-width="1.7778" d="M8 8h24.889v23.111h-24.889v-23.111z"></path>
      <path fill="none" stroke="#a6a6a6" style="stroke: var(--color1, #a6a6a6)" stroke-linejoin="miter" stroke-linecap="butt" stroke-miterlimit="4" stroke-width="1.7778" d="M31.412 6.222l-5.080-4.444h-23.967l5.080 4.444h23.967z"></path>
      <path fill="#a6a6a6" style="fill: var(--color1, #a6a6a6)" d="M7.111 7.111l-7.111-6.222v24.889l7.111 6.222v-24.889z"></path>
   </symbol>
   <symbol id="icon-logo-intercom" viewBox="0 0 179 32">
      <path fill="#a6a6a6" style="fill: var(--color1, #a6a6a6)" d="M40.982 6.384v19.394h-3.513v-19.394h3.513zM60.724 6.384v19.394h-3.125l-9.138-13.21h-0.161v13.21h-3.513v-19.394h3.144l9.129 13.22h0.17v-13.22h3.494zM63.699 9.329v-2.945h15.473v2.945h-5.994v16.449h-3.485v-16.449h-5.994zM82.156 25.778v-19.394h12.614v2.945h-9.101v5.265h8.447v2.945h-8.447v5.294h9.176v2.945h-12.689zM98.354 25.778v-19.394h7.273c1.49 0 2.74 0.259 3.75 0.777 1.016 0.518 1.783 1.244 2.3 2.178 0.524 0.928 0.787 2.011 0.787 3.248 0 1.244-0.266 2.323-0.796 3.239-0.524 0.909-1.298 1.613-2.32 2.112-1.023 0.492-2.279 0.739-3.769 0.739h-5.18v-2.917h4.707c0.871 0 1.585-0.12 2.14-0.36 0.556-0.246 0.965-0.603 1.231-1.070 0.271-0.473 0.407-1.054 0.407-1.742s-0.136-1.275-0.407-1.761c-0.272-0.492-0.685-0.865-1.241-1.117-0.556-0.259-1.272-0.388-2.149-0.388h-3.22v16.458h-3.513zM108.372 16.99l4.802 8.788h-3.921l-4.716-8.788h3.835zM132.298 12.927h-3.541c-0.101-0.581-0.287-1.095-0.559-1.544-0.271-0.454-0.609-0.84-1.013-1.155s-0.865-0.552-1.382-0.71c-0.511-0.164-1.064-0.246-1.657-0.246-1.054 0-1.989 0.265-2.804 0.795-0.814 0.524-1.452 1.294-1.913 2.311-0.46 1.010-0.691 2.244-0.691 3.703 0 1.484 0.23 2.734 0.691 3.75 0.468 1.010 1.105 1.774 1.913 2.292 0.814 0.511 1.746 0.767 2.794 0.767 0.58 0 1.124-0.076 1.628-0.227 0.512-0.158 0.97-0.388 1.373-0.691 0.411-0.303 0.755-0.675 1.032-1.117 0.284-0.442 0.48-0.947 0.588-1.515l3.541 0.019c-0.132 0.922-0.42 1.787-0.861 2.595-0.436 0.808-1.007 1.521-1.714 2.14-0.708 0.612-1.534 1.092-2.482 1.439-0.947 0.341-1.998 0.511-3.153 0.511-1.705 0-3.227-0.395-4.564-1.184s-2.393-1.929-3.163-3.419c-0.771-1.49-1.156-3.276-1.156-5.36 0-2.090 0.388-3.876 1.164-5.36 0.777-1.49 1.834-2.629 3.172-3.419s2.853-1.184 4.546-1.184c1.079 0 2.083 0.152 3.012 0.455s1.755 0.748 2.481 1.335c0.725 0.581 1.323 1.294 1.789 2.14 0.474 0.84 0.783 1.799 0.928 2.879zM152.844 16.081c0 2.090-0.391 3.879-1.174 5.369-0.776 1.484-1.836 2.62-3.181 3.409-1.339 0.789-2.857 1.184-4.555 1.184s-3.22-0.395-4.564-1.184c-1.339-0.795-2.399-1.935-3.182-3.419-0.776-1.49-1.164-3.276-1.164-5.36 0-2.090 0.388-3.876 1.164-5.36 0.783-1.49 1.844-2.629 3.182-3.419 1.344-0.789 2.866-1.184 4.564-1.184s3.216 0.395 4.555 1.184c1.345 0.789 2.405 1.929 3.181 3.419 0.783 1.484 1.174 3.27 1.174 5.36zM149.313 16.081c0-1.471-0.23-2.711-0.692-3.722-0.454-1.016-1.086-1.783-1.894-2.301-0.808-0.524-1.739-0.786-2.793-0.786s-1.986 0.262-2.794 0.786c-0.808 0.518-1.443 1.285-1.903 2.301-0.455 1.010-0.683 2.251-0.683 3.722s0.228 2.715 0.683 3.731c0.46 1.010 1.095 1.777 1.903 2.301 0.808 0.518 1.74 0.777 2.794 0.777s1.985-0.259 2.793-0.777c0.808-0.524 1.44-1.291 1.894-2.301 0.461-1.016 0.692-2.26 0.692-3.731zM156.166 6.384h4.3l5.757 14.053h0.228l5.757-14.053h4.3v19.394h-3.372v-13.324h-0.18l-5.36 13.267h-2.519l-5.36-13.295h-0.18v13.352h-3.372v-19.394z"></path>
      <path fill="#a6a6a6" style="fill: var(--color1, #a6a6a6)" d="M2.667 2.667h21.333c1.473 0 2.667 1.194 2.667 2.667v21.333c0 1.473-1.194 2.667-2.667 2.667h-21.333c-1.473 0-2.667-1.194-2.667-2.667v-21.333c0-1.473 1.194-2.667 2.667-2.667z"></path>
      <path fill="#fff" style="fill: var(--color2, #fff)" d="M3.556 8.889h1.778v10.667h-1.778v-10.667z"></path>
      <path fill="#fff" style="fill: var(--color2, #fff)" d="M8 6.222h1.778v16h-1.778v-16z"></path>
      <path fill="#fff" style="fill: var(--color2, #fff)" d="M12.444 6.222h1.778v16h-1.778v-16z"></path>
      <path fill="#fff" style="fill: var(--color2, #fff)" d="M16.889 6.222h1.778v16h-1.778v-16z"></path>
      <path fill="none" stroke="#fff" style="stroke: var(--color2, #fff)" stroke-linejoin="miter" stroke-linecap="round" stroke-miterlimit="4" stroke-width="1.7778" d="M4.444 24c2.519 2.012 9.778 4.83 18.667 0"></path>
      <path fill="#fff" style="fill: var(--color2, #fff)" d="M21.333 8.889h1.778v10.667h-1.778v-10.667z"></path>
   </symbol>
   <symbol id="icon-logo-gramarly" viewBox="0 0 174 32">
      <path fill="#a6a6a6" style="fill: var(--color1, #a6a6a6)" d="M26.667 16c0 7.364-5.97 13.333-13.333 13.333s-13.333-5.97-13.333-13.333c0-7.364 5.97-13.333 13.333-13.333s13.333 5.97 13.333 13.333z"></path>
      <path fill="none" stroke="#fff" style="stroke: var(--color2, #fff)" stroke-linejoin="miter" stroke-linecap="butt" stroke-miterlimit="4" stroke-width="1.7778" d="M18.667 16c0 3.436-2.786 6.222-6.222 6.222s-6.222-2.786-6.222-6.222c0-3.436 2.786-6.222 6.222-6.222 1.741 0 3.315 0.715 4.444 1.868"></path>
      <path fill="none" stroke="#fff" style="stroke: var(--color2, #fff)" stroke-linejoin="miter" stroke-linecap="butt" stroke-miterlimit="4" stroke-width="1.7778" d="M15.111 17.778l3.556-1.778 2.222 3.111"></path>
      <path fill="#a6a6a6" style="fill: var(--color1, #a6a6a6)" d="M43.643 31.535c-1.231 0-2.289-0.167-3.172-0.502-0.884-0.328-1.594-0.77-2.131-1.326s-0.909-1.171-1.117-1.847l3.087-0.748c0.139 0.284 0.341 0.565 0.606 0.843 0.265 0.284 0.622 0.518 1.070 0.701 0.455 0.189 1.026 0.284 1.714 0.284 0.972 0 1.777-0.237 2.415-0.71 0.638-0.467 0.956-1.237 0.956-2.311v-2.756h-0.17c-0.177 0.354-0.436 0.717-0.777 1.089-0.335 0.372-0.78 0.685-1.335 0.938-0.549 0.253-1.241 0.379-2.074 0.379-1.117 0-2.131-0.262-3.040-0.786-0.903-0.53-1.623-1.319-2.159-2.367-0.53-1.054-0.795-2.374-0.795-3.958 0-1.597 0.265-2.945 0.795-4.044 0.537-1.105 1.259-1.941 2.169-2.509 0.909-0.575 1.922-0.862 3.040-0.862 0.852 0 1.553 0.145 2.102 0.436 0.556 0.284 0.997 0.628 1.326 1.032 0.328 0.398 0.578 0.773 0.748 1.127h0.189v-2.405h3.381v14.782c0 1.244-0.297 2.273-0.89 3.087s-1.405 1.424-2.434 1.828c-1.029 0.404-2.197 0.606-3.504 0.606zM43.671 22.88c0.726 0 1.345-0.177 1.856-0.53s0.9-0.862 1.165-1.525c0.265-0.663 0.398-1.458 0.398-2.386 0-0.915-0.133-1.717-0.398-2.405-0.259-0.688-0.644-1.222-1.155-1.6-0.505-0.385-1.127-0.578-1.865-0.578-0.764 0-1.401 0.199-1.913 0.597s-0.896 0.944-1.155 1.638c-0.259 0.688-0.388 1.471-0.388 2.348 0 0.89 0.129 1.67 0.388 2.339 0.265 0.663 0.653 1.181 1.165 1.553 0.518 0.366 1.152 0.549 1.903 0.549zM53.984 25.778v-14.545h3.324v2.424h0.151c0.265-0.84 0.72-1.487 1.364-1.941 0.65-0.461 1.392-0.691 2.225-0.691 0.189 0 0.401 0.009 0.635 0.028 0.24 0.013 0.439 0.035 0.597 0.066v3.153c-0.145-0.050-0.376-0.095-0.691-0.133-0.309-0.044-0.609-0.066-0.9-0.066-0.625 0-1.187 0.136-1.686 0.407-0.492 0.265-0.881 0.634-1.165 1.108s-0.426 1.020-0.426 1.638v8.551h-3.428zM68.482 26.071c-0.922 0-1.752-0.164-2.49-0.492-0.732-0.335-1.313-0.827-1.743-1.477-0.423-0.65-0.634-1.452-0.634-2.405 0-0.821 0.151-1.499 0.454-2.036s0.717-0.966 1.241-1.288c0.524-0.322 1.114-0.565 1.771-0.729 0.663-0.17 1.348-0.294 2.055-0.369 0.852-0.088 1.544-0.167 2.074-0.237 0.53-0.076 0.915-0.189 1.155-0.341 0.246-0.158 0.369-0.401 0.369-0.729v-0.057c0-0.713-0.211-1.266-0.635-1.657s-1.032-0.587-1.828-0.587c-0.84 0-1.506 0.183-1.998 0.549-0.486 0.366-0.814 0.799-0.985 1.297l-3.201-0.455c0.253-0.884 0.669-1.622 1.25-2.216 0.581-0.6 1.291-1.048 2.131-1.345 0.84-0.303 1.768-0.455 2.784-0.455 0.701 0 1.398 0.082 2.093 0.246s1.329 0.436 1.903 0.814c0.575 0.372 1.035 0.881 1.383 1.525 0.354 0.644 0.53 1.449 0.53 2.415v9.735h-3.295v-1.998h-0.114c-0.208 0.404-0.502 0.783-0.881 1.136-0.372 0.347-0.843 0.628-1.411 0.843-0.562 0.208-1.222 0.313-1.979 0.313zM69.372 23.552c0.688 0 1.285-0.136 1.79-0.407 0.505-0.278 0.893-0.644 1.165-1.099 0.278-0.455 0.417-0.95 0.417-1.487v-1.714c-0.107 0.088-0.29 0.171-0.549 0.246-0.253 0.076-0.537 0.142-0.852 0.199s-0.628 0.107-0.938 0.152c-0.309 0.044-0.578 0.082-0.805 0.114-0.511 0.069-0.969 0.183-1.373 0.341s-0.723 0.379-0.956 0.663c-0.234 0.278-0.35 0.638-0.35 1.080 0 0.631 0.23 1.108 0.691 1.43s1.048 0.483 1.761 0.483zM79.609 25.778v-14.545h3.276v2.472h0.171c0.303-0.833 0.805-1.484 1.506-1.951 0.701-0.473 1.537-0.71 2.509-0.71 0.985 0 1.815 0.24 2.49 0.72 0.682 0.473 1.162 1.121 1.44 1.941h0.151c0.322-0.808 0.865-1.452 1.629-1.932 0.77-0.486 1.682-0.729 2.736-0.729 1.339 0 2.431 0.423 3.276 1.269s1.269 2.080 1.269 3.703v9.763h-3.437v-9.233c0-0.903-0.24-1.563-0.72-1.979-0.48-0.423-1.067-0.634-1.761-0.634-0.828 0-1.475 0.259-1.941 0.777-0.461 0.511-0.692 1.177-0.692 1.998v9.072h-3.362v-9.375c0-0.751-0.227-1.351-0.682-1.799-0.448-0.448-1.035-0.672-1.761-0.672-0.492 0-0.941 0.126-1.345 0.379-0.404 0.246-0.726 0.597-0.966 1.051-0.24 0.448-0.36 0.972-0.36 1.572v8.845h-3.428zM103.54 25.778v-14.545h3.277v2.472h0.17c0.303-0.833 0.805-1.484 1.506-1.951 0.701-0.473 1.538-0.71 2.509-0.71 0.985 0 1.815 0.24 2.491 0.72 0.682 0.473 1.162 1.121 1.44 1.941h0.151c0.322-0.808 0.865-1.452 1.628-1.932 0.771-0.486 1.683-0.729 2.737-0.729 1.339 0 2.431 0.423 3.276 1.269s1.269 2.080 1.269 3.703v9.763h-3.437v-9.233c0-0.903-0.24-1.563-0.72-1.979-0.48-0.423-1.067-0.634-1.762-0.634-0.827 0-1.474 0.259-1.94 0.777-0.461 0.511-0.692 1.177-0.692 1.998v9.072h-3.362v-9.375c0-0.751-0.228-1.351-0.682-1.799-0.448-0.448-1.036-0.672-1.762-0.672-0.492 0-0.94 0.126-1.345 0.379-0.404 0.246-0.725 0.597-0.965 1.051-0.24 0.448-0.36 0.972-0.36 1.572v8.845h-3.428zM131.659 26.071c-0.922 0-1.752-0.164-2.491-0.492-0.732-0.335-1.313-0.827-1.742-1.477-0.423-0.65-0.635-1.452-0.635-2.405 0-0.821 0.152-1.499 0.455-2.036s0.716-0.966 1.24-1.288c0.524-0.322 1.115-0.565 1.771-0.729 0.663-0.17 1.348-0.294 2.055-0.369 0.852-0.088 1.544-0.167 2.074-0.237 0.531-0.076 0.916-0.189 1.156-0.341 0.246-0.158 0.37-0.401 0.37-0.729v-0.057c0-0.713-0.212-1.266-0.635-1.657s-1.032-0.587-1.828-0.587c-0.84 0-1.506 0.183-1.998 0.549-0.486 0.366-0.814 0.799-0.985 1.297l-3.201-0.455c0.252-0.884 0.669-1.622 1.25-2.216 0.581-0.6 1.292-1.048 2.131-1.345 0.84-0.303 1.768-0.455 2.784-0.455 0.701 0 1.398 0.082 2.093 0.246s1.329 0.436 1.903 0.814c0.574 0.372 1.036 0.881 1.382 1.525 0.354 0.644 0.531 1.449 0.531 2.415v9.735h-3.295v-1.998h-0.114c-0.209 0.404-0.502 0.783-0.881 1.136-0.372 0.347-0.843 0.628-1.411 0.843-0.562 0.208-1.222 0.313-1.98 0.313zM132.549 23.552c0.688 0 1.284-0.136 1.789-0.407 0.505-0.278 0.893-0.644 1.164-1.099 0.278-0.455 0.417-0.95 0.417-1.487v-1.714c-0.108 0.088-0.291 0.171-0.549 0.246-0.252 0.076-0.536 0.142-0.852 0.199s-0.628 0.107-0.937 0.152-0.578 0.082-0.805 0.114c-0.511 0.069-0.969 0.183-1.373 0.341s-0.723 0.379-0.956 0.663c-0.233 0.278-0.35 0.638-0.35 1.080 0 0.631 0.231 1.108 0.692 1.43s1.048 0.483 1.762 0.483zM142.786 25.778v-14.545h3.324v2.424h0.152c0.265-0.84 0.719-1.487 1.364-1.941 0.65-0.461 1.392-0.691 2.225-0.691 0.189 0 0.401 0.009 0.635 0.028 0.24 0.013 0.439 0.035 0.596 0.066v3.153c-0.145-0.050-0.375-0.095-0.691-0.133-0.309-0.044-0.61-0.066-0.9-0.066-0.625 0-1.187 0.136-1.685 0.407-0.492 0.265-0.881 0.634-1.164 1.108s-0.427 1.020-0.427 1.638v8.551h-3.428zM156.787 6.384v19.394h-3.428v-19.394h3.428zM162.443 31.232c-0.468 0-0.9-0.038-1.298-0.114-0.391-0.069-0.704-0.151-0.938-0.246l0.796-2.67c0.499 0.145 0.944 0.215 1.336 0.208s0.735-0.129 1.032-0.369c0.303-0.234 0.558-0.625 0.767-1.174l0.293-0.786-5.275-14.848h3.636l3.352 10.985h0.152l3.362-10.985h3.645l-5.824 16.307c-0.271 0.77-0.631 1.43-1.079 1.979-0.448 0.556-0.997 0.979-1.648 1.269-0.644 0.297-1.414 0.445-2.31 0.445z"></path>
   </symbol>
   <symbol id="icon-logo-descript" viewBox="0 0 137 32">
      <path fill="#a6a6a6" style="fill: var(--color1, #a6a6a6)" d="M15.174 3.926c1.667 0.807 2.603 1.901 2.603 3.041h-17.778c0-1.141 0.936-2.235 2.603-3.041s3.928-1.26 6.285-1.26c2.357 0 4.618 0.453 6.285 1.26zM2.603 28.074c-1.667-0.807-2.603-1.901-2.603-3.041h17.778c0 1.141-0.937 2.235-2.603 3.041s-3.928 1.26-6.285 1.26-4.618-0.453-6.285-1.26zM20.444 18.151v3.441h-5.333v-3.441h5.333zM5.333 10.409h-5.333v3.441h5.333v-3.441zM9.778 10.409h10.667v3.441h-10.667v-3.441zM10.667 18.151h-10.667v3.441h10.667v-3.441z"></path>
      <path fill="#a6a6a6" style="fill: var(--color1, #a6a6a6)" d="M36.492 26.033c-1.143 0-2.165-0.294-3.068-0.881s-1.616-1.439-2.14-2.557-0.786-2.475-0.786-4.072c0-1.616 0.265-2.98 0.795-4.091 0.537-1.117 1.259-1.96 2.169-2.528 0.909-0.575 1.922-0.862 3.040-0.862 0.852 0 1.553 0.145 2.102 0.436 0.549 0.284 0.985 0.628 1.307 1.032 0.322 0.398 0.571 0.773 0.748 1.127h0.142v-7.254h3.438v19.394h-3.371v-2.292h-0.208c-0.177 0.354-0.432 0.729-0.767 1.127-0.335 0.391-0.777 0.726-1.326 1.004s-1.241 0.417-2.074 0.417zM37.449 23.221c0.726 0 1.345-0.196 1.856-0.587 0.511-0.398 0.9-0.95 1.165-1.657s0.398-1.531 0.398-2.472c0-0.941-0.133-1.758-0.398-2.453-0.259-0.694-0.644-1.234-1.155-1.619-0.505-0.385-1.127-0.578-1.865-0.578-0.764 0-1.401 0.199-1.913 0.597s-0.896 0.947-1.155 1.648c-0.259 0.701-0.388 1.503-0.388 2.405 0 0.909 0.129 1.72 0.388 2.434 0.265 0.707 0.653 1.266 1.165 1.676 0.518 0.404 1.152 0.606 1.903 0.606zM54.331 26.062c-1.458 0-2.718-0.303-3.778-0.909-1.054-0.612-1.865-1.477-2.434-2.595-0.568-1.124-0.852-2.446-0.852-3.968 0-1.496 0.284-2.809 0.852-3.939 0.575-1.136 1.376-2.020 2.405-2.651 1.029-0.638 2.238-0.956 3.627-0.956 0.896 0 1.742 0.145 2.538 0.436 0.802 0.284 1.509 0.726 2.121 1.326 0.619 0.6 1.105 1.364 1.458 2.292 0.354 0.922 0.53 2.020 0.53 3.295v1.051h-11.922v-2.311h8.636c-0.006-0.657-0.148-1.241-0.426-1.752-0.278-0.518-0.666-0.925-1.165-1.222-0.492-0.297-1.067-0.445-1.723-0.445-0.701 0-1.316 0.17-1.847 0.511-0.53 0.335-0.944 0.777-1.241 1.326-0.29 0.543-0.439 1.14-0.445 1.79v2.017c0 0.846 0.155 1.572 0.464 2.178 0.309 0.6 0.742 1.061 1.297 1.383 0.556 0.316 1.206 0.473 1.951 0.473 0.499 0 0.95-0.069 1.354-0.208 0.404-0.145 0.755-0.357 1.051-0.634s0.521-0.622 0.672-1.032l3.201 0.36c-0.202 0.846-0.587 1.585-1.155 2.216-0.562 0.625-1.282 1.111-2.159 1.458-0.877 0.341-1.881 0.511-3.011 0.511zM75.195 15.077l-3.125 0.341c-0.088-0.316-0.243-0.612-0.464-0.89-0.215-0.278-0.505-0.502-0.871-0.672s-0.814-0.256-1.345-0.256c-0.713 0-1.313 0.155-1.799 0.464-0.48 0.309-0.717 0.71-0.71 1.203-0.006 0.423 0.148 0.767 0.464 1.032 0.322 0.265 0.852 0.483 1.591 0.653l2.481 0.53c1.376 0.297 2.399 0.767 3.068 1.411 0.675 0.644 1.016 1.487 1.023 2.528-0.006 0.915-0.275 1.724-0.805 2.424-0.524 0.695-1.253 1.237-2.188 1.629s-2.008 0.587-3.22 0.587c-1.78 0-3.213-0.372-4.299-1.117-1.086-0.751-1.733-1.796-1.941-3.134l3.343-0.322c0.152 0.657 0.474 1.152 0.966 1.487s1.133 0.502 1.922 0.502c0.814 0 1.468-0.167 1.96-0.502 0.499-0.335 0.748-0.748 0.748-1.241 0-0.417-0.161-0.761-0.483-1.032-0.316-0.271-0.808-0.48-1.477-0.625l-2.481-0.521c-1.395-0.29-2.427-0.78-3.097-1.468-0.669-0.694-1.001-1.572-0.994-2.633-0.006-0.896 0.237-1.673 0.729-2.33 0.499-0.663 1.19-1.174 2.074-1.534 0.89-0.366 1.916-0.549 3.078-0.549 1.705 0 3.046 0.363 4.025 1.089 0.985 0.726 1.594 1.708 1.828 2.945zM84.679 26.062c-1.452 0-2.699-0.319-3.74-0.956-1.035-0.638-1.834-1.518-2.396-2.642-0.556-1.13-0.833-2.431-0.833-3.901 0-1.477 0.284-2.781 0.852-3.911 0.568-1.136 1.37-2.020 2.405-2.651 1.042-0.638 2.273-0.956 3.693-0.956 1.181 0 2.225 0.218 3.135 0.653 0.915 0.429 1.645 1.039 2.188 1.828 0.543 0.783 0.852 1.698 0.928 2.746h-3.277c-0.133-0.701-0.448-1.285-0.947-1.752-0.492-0.473-1.152-0.71-1.979-0.71-0.701 0-1.316 0.189-1.847 0.568-0.53 0.372-0.944 0.909-1.241 1.61-0.29 0.701-0.436 1.54-0.436 2.519 0 0.991 0.145 1.843 0.436 2.557 0.29 0.707 0.698 1.253 1.222 1.638 0.53 0.379 1.152 0.568 1.865 0.568 0.505 0 0.956-0.095 1.354-0.284 0.404-0.196 0.742-0.477 1.013-0.843s0.458-0.811 0.559-1.335h3.277c-0.083 1.029-0.385 1.941-0.909 2.737-0.524 0.789-1.237 1.408-2.14 1.856-0.903 0.442-1.963 0.663-3.182 0.663zM93.725 25.778v-14.545h3.324v2.424h0.151c0.266-0.84 0.72-1.487 1.364-1.941 0.651-0.461 1.392-0.691 2.226-0.691 0.189 0 0.401 0.009 0.635 0.028 0.24 0.013 0.438 0.035 0.596 0.066v3.153c-0.145-0.050-0.376-0.095-0.692-0.133-0.309-0.044-0.609-0.066-0.9-0.066-0.625 0-1.187 0.136-1.685 0.407-0.492 0.265-0.881 0.634-1.165 1.108s-0.426 1.020-0.426 1.638v8.551h-3.428zM104.298 25.778v-14.545h3.428v14.545h-3.428zM106.021 9.168c-0.543 0-1.010-0.18-1.402-0.54-0.391-0.366-0.587-0.805-0.587-1.316 0-0.518 0.196-0.956 0.587-1.316 0.392-0.366 0.859-0.549 1.402-0.549 0.549 0 1.016 0.183 1.402 0.549 0.391 0.36 0.587 0.799 0.587 1.316 0 0.511-0.196 0.95-0.587 1.316-0.386 0.36-0.852 0.54-1.402 0.54zM111.251 31.232v-20h3.372v2.405h0.199c0.177-0.354 0.426-0.729 0.748-1.127 0.322-0.404 0.758-0.748 1.307-1.032 0.549-0.29 1.251-0.436 2.102-0.436 1.124 0 2.138 0.287 3.040 0.862 0.909 0.568 1.629 1.411 2.159 2.528 0.537 1.111 0.805 2.475 0.805 4.091 0 1.597-0.262 2.955-0.786 4.072s-1.238 1.97-2.14 2.557c-0.903 0.587-1.925 0.881-3.068 0.881-0.833 0-1.524-0.139-2.074-0.417s-0.991-0.612-1.325-1.004c-0.329-0.398-0.584-0.773-0.767-1.127h-0.142v7.746h-3.428zM114.612 18.505c0 0.941 0.132 1.765 0.398 2.472 0.271 0.707 0.66 1.259 1.164 1.657 0.511 0.391 1.13 0.587 1.856 0.587 0.757 0 1.392-0.202 1.903-0.606 0.512-0.41 0.897-0.969 1.156-1.676 0.266-0.713 0.398-1.525 0.398-2.434 0-0.903-0.13-1.705-0.388-2.405s-0.644-1.25-1.156-1.648c-0.511-0.398-1.148-0.597-1.913-0.597-0.732 0-1.354 0.193-1.866 0.578s-0.9 0.925-1.164 1.619c-0.259 0.695-0.388 1.512-0.388 2.453zM135.18 11.232v2.651h-8.361v-2.651h8.361zM128.884 7.747h3.428v13.655c0 0.461 0.070 0.814 0.209 1.061 0.145 0.24 0.334 0.404 0.568 0.492s0.492 0.133 0.777 0.133c0.214 0 0.41-0.016 0.587-0.047 0.183-0.032 0.322-0.060 0.417-0.085l0.578 2.68c-0.183 0.063-0.445 0.133-0.786 0.208-0.335 0.076-0.746 0.12-1.231 0.133-0.859 0.025-1.632-0.104-2.32-0.388-0.689-0.29-1.235-0.739-1.639-1.345-0.397-0.606-0.593-1.364-0.587-2.273v-14.223z"></path>
   </symbol>
   <symbol id="icon-rating-four-stars" viewBox="0 0 175 32">
      <path fill="#ffc728" style="fill: var(--color1, #ffc728)" d="M16 0l3.592 11.056h11.625l-9.405 6.833 3.592 11.056-9.405-6.833-9.405 6.833 3.592-11.056-9.405-6.833h11.625l3.592-11.056z"></path>
      <path fill="#ffc728" style="fill: var(--color1, #ffc728)" d="M51.692 0l3.592 11.056h11.625l-9.405 6.833 3.592 11.056-9.405-6.833-9.405 6.833 3.592-11.056-9.405-6.833h11.625l3.592-11.056z"></path>
      <path fill="#ffc728" style="fill: var(--color1, #ffc728)" d="M87.385 0l3.592 11.056h11.625l-9.405 6.833 3.592 11.056-9.405-6.833-9.405 6.833 3.592-11.056-9.405-6.833h11.625l3.592-11.056z"></path>
      <path fill="#ffc728" style="fill: var(--color1, #ffc728)" d="M123.077 0l3.593 11.056h11.625l-9.404 6.833 3.591 11.056-9.404-6.833-9.405 6.833 3.592-11.056-9.405-6.833h11.625l3.592-11.056z"></path>
      <path fill="#bbb" style="fill: var(--color2, #bbb)" d="M158.769 0l3.593 11.056h11.625l-9.404 6.833 3.591 11.056-9.404-6.833-9.404 6.833 3.591-11.056-9.404-6.833h11.625l3.593-11.056z"></path>
   </symbol>
   <symbol id="icon-rating-five-stars" viewBox="0 0 175 32">
      <path fill="#ffc728" style="fill: var(--color1, #ffc728)" d="M16 0l3.592 11.056h11.625l-9.405 6.833 3.592 11.056-9.405-6.833-9.405 6.833 3.592-11.056-9.405-6.833h11.625l3.592-11.056z"></path>
      <path fill="#ffc728" style="fill: var(--color1, #ffc728)" d="M51.692 0l3.592 11.056h11.625l-9.405 6.833 3.592 11.056-9.405-6.833-9.405 6.833 3.592-11.056-9.405-6.833h11.625l3.592-11.056z"></path>
      <path fill="#ffc728" style="fill: var(--color1, #ffc728)" d="M87.385 0l3.592 11.056h11.625l-9.405 6.833 3.592 11.056-9.405-6.833-9.405 6.833 3.592-11.056-9.405-6.833h11.625l3.592-11.056z"></path>
      <path fill="#ffc728" style="fill: var(--color1, #ffc728)" d="M123.077 0l3.593 11.056h11.625l-9.404 6.833 3.591 11.056-9.404-6.833-9.405 6.833 3.592-11.056-9.405-6.833h11.625l3.592-11.056z"></path>
      <path fill="#ffc728" style="fill: var(--color1, #ffc728)" d="M158.769 0l3.593 11.056h11.625l-9.404 6.833 3.591 11.056-9.404-6.833-9.404 6.833 3.591-11.056-9.404-6.833h11.625l3.593-11.056z"></path>
   </symbol>

   <symbol id="icon-publishing" viewBox="0 0 35 32">
      <path d="M12.48 0c0.551 0 1.039 0.353 1.214 0.875l8.386 25.159 3.586-10.759 0.079-0.188c0.218-0.418 0.653-0.688 1.135-0.688h6.4c0.707 0 1.28 0.573 1.28 1.28s-0.573 1.28-1.28 1.28h-5.477l-4.509 13.525c-0.174 0.523-0.663 0.875-1.214 0.875s-1.039-0.352-1.214-0.875l-8.386-25.159-3.586 10.759c-0.174 0.523-0.663 0.875-1.214 0.875h-6.4c-0.707 0-1.28-0.573-1.28-1.28s0.573-1.28 1.28-1.28h5.478l4.509-13.525 0.079-0.188c0.218-0.418 0.653-0.688 1.135-0.688z"></path>
   </symbol>
   <symbol id="icon-engagement" viewBox="0 0 32 32">
      <path d="M9.6 21.76h-3.52c-0.934 0-1.829 0.371-2.489 1.031s-1.031 1.555-1.031 2.489 0.371 1.829 1.031 2.489c0.66 0.66 1.555 1.031 2.489 1.031s1.829-0.371 2.489-1.031c0.66-0.66 1.031-1.555 1.031-2.489v-3.52zM28.8 25.28c0-0.933-0.371-1.829-1.031-2.489s-1.555-1.031-2.489-1.031h-3.52v3.52c0 0.933 0.371 1.829 1.031 2.489s1.555 1.031 2.489 1.031 1.829-0.371 2.489-1.031c0.66-0.66 1.031-1.555 1.031-2.489zM12.16 19.2h7.040v-7.040h-7.040v7.040zM9.6 6.080c0-0.934-0.371-1.829-1.031-2.489s-1.555-1.031-2.489-1.031c-0.934 0-1.829 0.371-2.489 1.031s-1.031 1.555-1.031 2.489c0 0.934 0.371 1.829 1.031 2.489s1.555 1.031 2.489 1.031h3.52v-3.52zM28.8 6.080c0-0.934-0.371-1.829-1.031-2.489s-1.555-1.031-2.489-1.031-1.829 0.371-2.489 1.031c-0.66 0.66-1.031 1.555-1.031 2.489v3.52h3.52c0.933 0 1.829-0.371 2.489-1.031s1.031-1.555 1.031-2.489zM31.36 6.080c0 1.613-0.641 3.159-1.781 4.299s-2.686 1.781-4.299 1.781h-3.52v7.040h3.52c1.613 0 3.159 0.641 4.299 1.781s1.781 2.686 1.781 4.299c0 1.613-0.641 3.159-1.781 4.299s-2.686 1.781-4.299 1.781c-1.613 0-3.159-0.641-4.299-1.781s-1.781-2.686-1.781-4.299v-3.52h-7.040v3.52c0 1.613-0.641 3.159-1.781 4.299s-2.686 1.781-4.299 1.781c-1.613 0-3.159-0.641-4.299-1.781s-1.781-2.686-1.781-4.299c0-1.613 0.641-3.159 1.781-4.299s2.686-1.781 4.299-1.781h3.52v-7.040h-3.52c-1.613 0-3.159-0.641-4.299-1.781s-1.781-2.686-1.781-4.299c0-1.613 0.641-3.159 1.781-4.299s2.686-1.781 4.299-1.781c1.613 0 3.159 0.641 4.299 1.781s1.781 2.686 1.781 4.299v3.52h7.040v-3.52c0-1.613 0.641-3.159 1.781-4.299s2.686-1.781 4.299-1.781c1.613 0 3.159 0.641 4.299 1.781s1.781 2.686 1.781 4.299z"></path>
   </symbol>
   <symbol id="icon-analitics" viewBox="0 0 32 32">
      <path fill="#54bd95" style="fill: var(--color1, #54bd95)" d="M10.24 2.795c0.54-0.235 1.168 0.011 1.404 0.551s-0.011 1.17-0.551 1.405c-1.836 0.801-3.449 2.040-4.696 3.608s-2.090 3.419-2.457 5.389c-0.367 1.97-0.246 3.999 0.353 5.911s1.657 3.649 3.082 5.057c1.425 1.409 3.173 2.447 5.092 3.024s3.95 0.675 5.916 0.285c1.965-0.389 3.805-1.254 5.359-2.519s2.775-2.891 3.555-4.736c0.229-0.543 0.855-0.796 1.398-0.567s0.796 0.855 0.567 1.398c-0.916 2.166-2.349 4.075-4.173 5.559s-3.984 2.5-6.292 2.957c-2.307 0.457-4.692 0.342-6.945-0.335s-4.304-1.896-5.977-3.55c-1.673-1.654-2.915-3.692-3.618-5.936s-0.845-4.627-0.415-6.94c0.431-2.312 1.421-4.484 2.884-6.325s3.357-3.297 5.512-4.237z"></path>
      <path fill="#54bd95" style="fill: var(--color1, #54bd95)" d="M16 1.6c1.891 0 3.763 0.372 5.51 1.096s3.335 1.785 4.672 3.122 2.398 2.925 3.122 4.672c0.724 1.747 1.096 3.62 1.096 5.51 0 0.589-0.478 1.067-1.067 1.067h-13.333c-0.589 0-1.067-0.478-1.067-1.067v-13.333c0-0.283 0.112-0.554 0.313-0.754s0.471-0.313 0.754-0.313zM17.067 14.933h11.151c-0.109-1.245-0.405-2.469-0.884-3.627-0.616-1.488-1.52-2.841-2.659-3.98s-2.492-2.043-3.98-2.659c-1.159-0.48-2.382-0.776-3.627-0.884v11.151z"></path>
   </symbol>
   <symbol id="icon-Subtract" viewBox="0 0 32 32">
      <path d="M16 32c-8.837 0-16-7.163-16-16s7.163-16 16-16c8.837 0 16 7.163 16 16s-7.163 16-16 16zM15.632 19.896l6.206-6.4-1.436-1.392-5.516 5.689-3.316-3.157-1.379 1.449 4.752 4.523 0.69-0.711z"></path>
   </symbol>
   <symbol id="icon-footer-mark" viewBox="0 0 38 32">
      <path d="M9.684 0h8.421l-5.895 32h-12.211l9.684-32z"></path>
      <path d="M29.474 0h8.421l-5.895 32h-12.211l9.684-32z"></path>
   </symbol>

   <symbol id="icon-arrow-right" viewBox="0 0 20 20">
      <path d="M16.172 9l-6.071-6.071 1.414-1.414 8.485 8.485-8.485 8.485-1.414-1.414 6.071-6.071h-16.172v-2z"></path>
   </symbol>
    <symbol id="icon-close" viewBox="0 0 20 20">
       <path d="M10 8.586l-7.071-7.071-1.414 1.414 7.071 7.071-7.071 7.071 1.414 1.414 7.071-7.071 7.071 7.071 1.414-1.414-7.071-7.071 7.071-7.071-1.414-1.414-7.071 7.071z"></path>
    </symbol>
    <symbol id="icon-menu" viewBox="0 0 32 32">
       <path d="M29.333 24.007c0 0.733-0.595 1.327-1.327 1.327h-10.68c-0.733 0-1.327-0.594-1.327-1.327s0.594-1.327 1.327-1.327h10.68c0.733 0 1.327 0.593 1.327 1.327zM29.333 16c0 0.733-0.595 1.327-1.327 1.327h-24.013c-0.733 0-1.327-0.594-1.327-1.327s0.594-1.327 1.327-1.327h24.013c0.733 0 1.327 0.595 1.327 1.327zM28.007 9.32c0.733 0 1.327-0.594 1.327-1.327s-0.594-1.327-1.327-1.327h-16.013c-0.733 0-1.327 0.594-1.327 1.327s0.594 1.327 1.327 1.327v0z"></path>
     </symbol>


  </defs>
</svg>
